<svg width="167" height="300" viewBox="0 0 167 300" fill="none" xmlns="http://www.w3.org/2000/svg">
<path d="M101.539 14.9123C124.286 32.013 152.153 70.2328 121.392 109.105C102.246 133.302 68.0421 144.937 51.0998 120.727V120.727C34.5933 97.1387 83.4171 66.7355 106.334 84.2742C121.632 95.9817 132.286 119.597 126.932 163.058C123.587 190.21 112.824 216.689 94.0091 237.37C86.7466 245.352 78.1528 253.504 68.4245 260.681" stroke="white" stroke-opacity="0.75" stroke-width="1.5" stroke-dasharray="8 8"/>
<path fill-rule="evenodd" clip-rule="evenodd" d="M48.0497 279.544C45.637 280.182 44.0992 276.98 45.6394 274.525L56.8867 256.6C58.0965 254.672 60.4156 254.657 61.3352 256.572L64.2643 262.672C64.2644 262.672 64.2644 262.672 64.2644 262.672L65.1301 264.475C65.1301 264.475 65.1301 264.475 65.1301 264.475L67.7063 269.839C68.6258 271.754 67.5632 274.385 65.6681 274.886L48.0497 279.544ZM65.1301 264.475L53.8676 273.286C53.4326 273.627 52.8862 273.499 52.6471 273.001C52.408 272.503 52.5668 271.824 53.0018 271.483L64.2643 262.672L65.1301 264.475Z" fill="#FF8E26"/>
</svg>
